<mxfile host="app.diagrams.net" agent="Mozilla/5.0 (Windows NT 10.0; Win64; x64) AppleWebKit/537.36 (KHTML, like Gecko) Chrome/136.0.0.0 Safari/537.36" version="27.0.6">
  <diagram id="prtHgNgQTEPvFCAcTncT" name="Page-1">
    <mxGraphModel dx="866" dy="465" grid="1" gridSize="10" guides="1" tooltips="1" connect="1" arrows="1" fold="1" page="1" pageScale="1" pageWidth="827" pageHeight="1169" math="0" shadow="0">
      <root>
        <mxCell id="0" />
        <mxCell id="1" parent="0" />
        <mxCell id="title" value="EBS Tagging Automation Architecture" style="text;html=1;strokeColor=none;fillColor=none;align=center;verticalAlign=middle;whiteSpace=wrap;rounded=0;fontSize=20;fontStyle=1" parent="1" vertex="1">
          <mxGeometry x="164" y="20" width="500" height="30" as="geometry" />
        </mxCell>
        <mxCell id="aws_cloud" value="" style="points=[[0,0],[0.25,0],[0.5,0],[0.75,0],[1,0],[1,0.25],[1,0.5],[1,0.75],[1,1],[0.75,1],[0.5,1],[0.25,1],[0,1],[0,0.75],[0,0.5],[0,0.25]];outlineConnect=0;gradientColor=none;html=1;whiteSpace=wrap;fontSize=12;fontStyle=0;container=1;pointerEvents=0;collapsible=0;recursiveResize=0;shape=mxgraph.aws4.group;grIcon=mxgraph.aws4.group_aws_cloud_alt;strokeColor=#232F3E;fillColor=none;verticalAlign=top;align=left;spacingLeft=30;fontColor=#232F3E;dashed=0;" parent="1" vertex="1">
          <mxGeometry x="40" y="70" width="760" height="630" as="geometry" />
        </mxCell>
        <mxCell id="eventbridge_schedule" value="" style="sketch=0;points=[[0,0,0],[0.25,0,0],[0.5,0,0],[0.75,0,0],[1,0,0],[0,1,0],[0.25,1,0],[0.5,1,0],[0.75,1,0],[1,1,0],[0,0.25,0],[0,0.5,0],[0,0.75,0],[1,0.25,0],[1,0.5,0],[1,0.75,0]];outlineConnect=0;fontColor=#232F3E;gradientColor=#FF4F8B;gradientDirection=north;fillColor=#BC1356;strokeColor=#ffffff;dashed=0;verticalLabelPosition=bottom;verticalAlign=top;align=center;html=1;fontSize=12;fontStyle=0;aspect=fixed;shape=mxgraph.aws4.resourceIcon;resIcon=mxgraph.aws4.eventbridge;" parent="aws_cloud" vertex="1">
          <mxGeometry x="120" y="11" width="78" height="78" as="geometry" />
        </mxCell>
        <mxCell id="eventbridge_schedule_label" value="EventBridge Schedule&lt;br&gt;(Daily at 1 PM UTC)" style="text;html=1;strokeColor=none;fillColor=none;align=center;verticalAlign=top;whiteSpace=wrap;rounded=0;" parent="aws_cloud" vertex="1">
          <mxGeometry x="20" y="70" width="120" height="40" as="geometry" />
        </mxCell>
        <mxCell id="eventbridge_event" value="" style="sketch=0;points=[[0,0,0],[0.25,0,0],[0.5,0,0],[0.75,0,0],[1,0,0],[0,1,0],[0.25,1,0],[0.5,1,0],[0.75,1,0],[1,1,0],[0,0.25,0],[0,0.5,0],[0,0.75,0],[1,0.25,0],[1,0.5,0],[1,0.75,0]];outlineConnect=0;fontColor=#232F3E;gradientColor=#FF4F8B;gradientDirection=north;fillColor=#BC1356;strokeColor=#ffffff;dashed=0;verticalLabelPosition=bottom;verticalAlign=top;align=center;html=1;fontSize=12;fontStyle=0;aspect=fixed;shape=mxgraph.aws4.resourceIcon;resIcon=mxgraph.aws4.eventbridge;" parent="aws_cloud" vertex="1">
          <mxGeometry x="330" y="20" width="78" height="78" as="geometry" />
        </mxCell>
        <mxCell id="eventbridge_event_label" value="EventBridge Event&lt;br&gt;(Attach/Detach Volume)" style="text;html=1;strokeColor=none;fillColor=none;align=center;verticalAlign=top;whiteSpace=wrap;rounded=0;" parent="aws_cloud" vertex="1">
          <mxGeometry x="408" y="30" width="120" height="40" as="geometry" />
        </mxCell>
        <mxCell id="lambda" value="" style="sketch=0;points=[[0,0,0],[0.25,0,0],[0.5,0,0],[0.75,0,0],[1,0,0],[0,1,0],[0.25,1,0],[0.5,1,0],[0.75,1,0],[1,1,0],[0,0.25,0],[0,0.5,0],[0,0.75,0],[1,0.25,0],[1,0.5,0],[1,0.75,0]];outlineConnect=0;fontColor=#232F3E;gradientColor=#F78E04;gradientDirection=north;fillColor=#D05C17;strokeColor=#ffffff;dashed=0;verticalLabelPosition=bottom;verticalAlign=top;align=center;html=1;fontSize=12;fontStyle=0;aspect=fixed;shape=mxgraph.aws4.resourceIcon;resIcon=mxgraph.aws4.lambda;" parent="aws_cloud" vertex="1">
          <mxGeometry x="180" y="250" width="78" height="78" as="geometry" />
        </mxCell>
        <mxCell id="lambda_label" value="Lambda Function&lt;br&gt;EBS-Tagging-Lambda" style="text;html=1;strokeColor=none;fillColor=none;align=center;verticalAlign=top;whiteSpace=wrap;rounded=0;" parent="aws_cloud" vertex="1">
          <mxGeometry x="170" y="340" width="120" height="40" as="geometry" />
        </mxCell>
        <mxCell id="ec2" value="" style="sketch=0;points=[[0,0,0],[0.25,0,0],[0.5,0,0],[0.75,0,0],[1,0,0],[0,1,0],[0.25,1,0],[0.5,1,0],[0.75,1,0],[1,1,0],[0,0.25,0],[0,0.5,0],[0,0.75,0],[1,0.25,0],[1,0.5,0],[1,0.75,0]];outlineConnect=0;fontColor=#232F3E;gradientColor=#F78E04;gradientDirection=north;fillColor=#D05C17;strokeColor=#ffffff;dashed=0;verticalLabelPosition=bottom;verticalAlign=top;align=center;html=1;fontSize=12;fontStyle=0;aspect=fixed;shape=mxgraph.aws4.resourceIcon;resIcon=mxgraph.aws4.ec2;" parent="aws_cloud" vertex="1">
          <mxGeometry x="570" y="130" width="78" height="78" as="geometry" />
        </mxCell>
        <mxCell id="ec2_label" value="EC2 Instances&lt;br&gt;with EnterpriseAppID Tag" style="text;html=1;strokeColor=none;fillColor=none;align=center;verticalAlign=top;whiteSpace=wrap;rounded=0;" parent="aws_cloud" vertex="1">
          <mxGeometry x="610" y="89" width="120" height="40" as="geometry" />
        </mxCell>
        <mxCell id="ebs" value="" style="sketch=0;outlineConnect=0;fontColor=#232F3E;gradientColor=none;fillColor=#D45B07;strokeColor=none;dashed=0;verticalLabelPosition=bottom;verticalAlign=top;align=center;html=1;fontSize=12;fontStyle=0;aspect=fixed;pointerEvents=1;shape=mxgraph.aws4.volume;" parent="aws_cloud" vertex="1">
          <mxGeometry x="570" y="328" width="78" height="78" as="geometry" />
        </mxCell>
        <mxCell id="ebs_label" value="EBS Volumes&lt;br&gt;to be Tagged" style="text;html=1;strokeColor=none;fillColor=none;align=center;verticalAlign=top;whiteSpace=wrap;rounded=0;" parent="aws_cloud" vertex="1">
          <mxGeometry x="620" y="350" width="120" height="40" as="geometry" />
        </mxCell>
        <mxCell id="iam" value="" style="sketch=0;points=[[0,0,0],[0.25,0,0],[0.5,0,0],[0.75,0,0],[1,0,0],[0,1,0],[0.25,1,0],[0.5,1,0],[0.75,1,0],[1,1,0],[0,0.25,0],[0,0.5,0],[0,0.75,0],[1,0.25,0],[1,0.5,0],[1,0.75,0]];outlineConnect=0;fontColor=#232F3E;gradientColor=#F54749;gradientDirection=north;fillColor=#C7131F;strokeColor=#ffffff;dashed=0;verticalLabelPosition=bottom;verticalAlign=top;align=center;html=1;fontSize=12;fontStyle=0;aspect=fixed;shape=mxgraph.aws4.resourceIcon;resIcon=mxgraph.aws4.identity_and_access_management;" parent="aws_cloud" vertex="1">
          <mxGeometry x="30" y="350" width="78" height="78" as="geometry" />
        </mxCell>
        <mxCell id="iam_label" value="IAM Role&lt;br&gt;EBS-Tagging-Role" style="text;html=1;strokeColor=none;fillColor=none;align=center;verticalAlign=top;whiteSpace=wrap;rounded=0;" parent="aws_cloud" vertex="1">
          <mxGeometry x="9" y="428" width="120" height="40" as="geometry" />
        </mxCell>
        <mxCell id="s3" value="" style="sketch=0;points=[[0,0,0],[0.25,0,0],[0.5,0,0],[0.75,0,0],[1,0,0],[0,1,0],[0.25,1,0],[0.5,1,0],[0.75,1,0],[1,1,0],[0,0.25,0],[0,0.5,0],[0,0.75,0],[1,0.25,0],[1,0.5,0],[1,0.75,0]];outlineConnect=0;fontColor=#232F3E;gradientColor=#60A337;gradientDirection=north;fillColor=#277116;strokeColor=#ffffff;dashed=0;verticalLabelPosition=bottom;verticalAlign=top;align=center;html=1;fontSize=12;fontStyle=0;aspect=fixed;shape=mxgraph.aws4.resourceIcon;resIcon=mxgraph.aws4.s3;" parent="aws_cloud" vertex="1">
          <mxGeometry x="30" y="160" width="78" height="78" as="geometry" />
        </mxCell>
        <mxCell id="s3_label" value="S3 Bucket&lt;br&gt;Lambda Code" style="text;html=1;strokeColor=none;fillColor=none;align=center;verticalAlign=top;whiteSpace=wrap;rounded=0;" parent="aws_cloud" vertex="1">
          <mxGeometry x="9" y="238" width="120" height="40" as="geometry" />
        </mxCell>
        <mxCell id="cloudwatch" value="" style="sketch=0;points=[[0,0,0],[0.25,0,0],[0.5,0,0],[0.75,0,0],[1,0,0],[0,1,0],[0.25,1,0],[0.5,1,0],[0.75,1,0],[1,1,0],[0,0.25,0],[0,0.5,0],[0,0.75,0],[1,0.25,0],[1,0.5,0],[1,0.75,0]];points=[[0,0,0],[0.25,0,0],[0.5,0,0],[0.75,0,0],[1,0,0],[0,1,0],[0.25,1,0],[0.5,1,0],[0.75,1,0],[1,1,0],[0,0.25,0],[0,0.5,0],[0,0.75,0],[1,0.25,0],[1,0.5,0],[1,0.75,0]];outlineConnect=0;fontColor=#232F3E;gradientColor=#F34482;gradientDirection=north;fillColor=#BC1356;strokeColor=#ffffff;dashed=0;verticalLabelPosition=bottom;verticalAlign=top;align=center;html=1;fontSize=12;fontStyle=0;aspect=fixed;shape=mxgraph.aws4.resourceIcon;resIcon=mxgraph.aws4.cloudwatch_2;" parent="aws_cloud" vertex="1">
          <mxGeometry x="408" y="390" width="78" height="78" as="geometry" />
        </mxCell>
        <mxCell id="cloudwatch_label" value="CloudWatch Logs" style="text;html=1;strokeColor=none;fillColor=none;align=center;verticalAlign=top;whiteSpace=wrap;rounded=0;" parent="aws_cloud" vertex="1">
          <mxGeometry x="320" y="468" width="120" height="20" as="geometry" />
        </mxCell>
        <mxCell id="schedule_to_lambda" value="" style="endArrow=classic;html=1;rounded=0;strokeColor=#FF9900;strokeWidth=2;dashed=1;flowAnimation=1;" parent="aws_cloud" source="eventbridge_schedule" target="lambda" edge="1">
          <mxGeometry width="50" height="50" relative="1" as="geometry">
            <mxPoint x="139" y="155" as="sourcePoint" />
            <mxPoint x="189" y="225" as="targetPoint" />
          </mxGeometry>
        </mxCell>
        <mxCell id="schedule_trigger_label" value="Daily Trigger" style="edgeLabel;html=1;align=center;verticalAlign=middle;resizable=0;points=[];fontColor=#FF9900;" parent="schedule_to_lambda" vertex="1" connectable="0">
          <mxGeometry x="-0.3196" y="-1" relative="1" as="geometry">
            <mxPoint as="offset" />
          </mxGeometry>
        </mxCell>
        <mxCell id="event_to_lambda" value="" style="endArrow=classic;html=1;rounded=0;strokeColor=#00CC00;strokeWidth=2;flowAnimation=1;" parent="aws_cloud" source="eventbridge_event" target="lambda" edge="1">
          <mxGeometry width="50" height="50" relative="1" as="geometry">
            <mxPoint x="289" y="160" as="sourcePoint" />
            <mxPoint x="289" y="230" as="targetPoint" />
          </mxGeometry>
        </mxCell>
        <mxCell id="event_trigger_label" value="Event Trigger" style="edgeLabel;html=1;align=center;verticalAlign=middle;resizable=0;points=[];fontColor=#00CC00;" parent="event_to_lambda" vertex="1" connectable="0">
          <mxGeometry x="-0.3196" y="-1" relative="1" as="geometry">
            <mxPoint as="offset" />
          </mxGeometry>
        </mxCell>
        <mxCell id="lambda_to_ec2" value="" style="endArrow=classic;html=1;rounded=0;strokeColor=#0066CC;strokeWidth=2;flowAnimation=1;" parent="aws_cloud" source="lambda" target="ec2" edge="1">
          <mxGeometry width="50" height="50" relative="1" as="geometry">
            <mxPoint x="270" y="289" as="sourcePoint" />
            <mxPoint x="510" y="219" as="targetPoint" />
          </mxGeometry>
        </mxCell>
        <mxCell id="read_instance_tags_label" value="Read Instance Tags" style="edgeLabel;html=1;align=center;verticalAlign=middle;resizable=0;points=[];fontColor=#0066CC;" parent="lambda_to_ec2" vertex="1" connectable="0">
          <mxGeometry x="-0.3196" y="-1" relative="1" as="geometry">
            <mxPoint as="offset" />
          </mxGeometry>
        </mxCell>
        <mxCell id="lambda_to_ebs" value="" style="endArrow=classic;html=1;rounded=0;strokeColor=#0066CC;strokeWidth=2;flowAnimation=1;" parent="aws_cloud" source="lambda" target="ebs" edge="1">
          <mxGeometry width="50" height="50" relative="1" as="geometry">
            <mxPoint x="270" y="289" as="sourcePoint" />
            <mxPoint x="510" y="379" as="targetPoint" />
          </mxGeometry>
        </mxCell>
        <mxCell id="tag_volumes_label" value="Tag Volumes" style="edgeLabel;html=1;align=center;verticalAlign=middle;resizable=0;points=[];fontColor=#0066CC;" parent="lambda_to_ebs" vertex="1" connectable="0">
          <mxGeometry x="-0.3196" y="-1" relative="1" as="geometry">
            <mxPoint as="offset" />
          </mxGeometry>
        </mxCell>
        <mxCell id="lambda_to_cloudwatch" value="" style="endArrow=classic;html=1;rounded=0;strokeColor=#0066CC;strokeWidth=2;dashed=1;flowAnimation=1;" parent="aws_cloud" source="lambda" target="cloudwatch" edge="1">
          <mxGeometry width="50" height="50" relative="1" as="geometry">
            <mxPoint x="219" y="340" as="sourcePoint" />
            <mxPoint x="259" y="340" as="targetPoint" />
          </mxGeometry>
        </mxCell>
        <mxCell id="logs_label" value="Logs" style="edgeLabel;html=1;align=center;verticalAlign=middle;resizable=0;points=[];fontColor=#0066CC;" parent="lambda_to_cloudwatch" vertex="1" connectable="0">
          <mxGeometry x="-0.2" y="1" relative="1" as="geometry">
            <mxPoint as="offset" />
          </mxGeometry>
        </mxCell>
        <mxCell id="s3_to_lambda" value="" style="endArrow=classic;html=1;rounded=0;strokeColor=#9933FF;strokeWidth=2;dashed=1;dashPattern=1 1;flowAnimation=1;" parent="aws_cloud" source="s3" target="lambda" edge="1">
          <mxGeometry width="50" height="50" relative="1" as="geometry">
            <mxPoint x="139" y="219" as="sourcePoint" />
            <mxPoint x="179" y="259" as="targetPoint" />
          </mxGeometry>
        </mxCell>
        <mxCell id="code_deployment_label" value="Code" style="edgeLabel;html=1;align=center;verticalAlign=middle;resizable=0;points=[];fontColor=#9933FF;" parent="s3_to_lambda" vertex="1" connectable="0">
          <mxGeometry x="-0.2755" y="1" relative="1" as="geometry">
            <mxPoint as="offset" />
          </mxGeometry>
        </mxCell>
        <mxCell id="iam_to_lambda" value="" style="endArrow=classic;html=1;rounded=0;strokeColor=#FFB366;strokeWidth=2;flowAnimation=1;" parent="aws_cloud" source="iam" target="lambda" edge="1">
          <mxGeometry width="50" height="50" relative="1" as="geometry">
            <mxPoint x="139" y="340" as="sourcePoint" />
            <mxPoint x="179" y="300" as="targetPoint" />
          </mxGeometry>
        </mxCell>
        <mxCell id="permissions_label" value="Permissions" style="edgeLabel;html=1;align=center;verticalAlign=middle;resizable=0;points=[];fontColor=#FFB366;" parent="iam_to_lambda" vertex="1" connectable="0">
          <mxGeometry x="-0.2966" y="1" relative="1" as="geometry">
            <mxPoint as="offset" />
          </mxGeometry>
        </mxCell>
        <mxCell id="ec2_to_ebs" value="" style="endArrow=classic;startArrow=classic;html=1;rounded=0;strokeColor=#666666;strokeWidth=1;flowAnimation=1;" parent="aws_cloud" source="ebs" target="ec2" edge="1">
          <mxGeometry width="50" height="50" relative="1" as="geometry">
            <mxPoint x="559" y="340" as="sourcePoint" />
            <mxPoint x="559" y="260" as="targetPoint" />
          </mxGeometry>
        </mxCell>
        <mxCell id="attach_detach_label" value="Attach/Detach" style="edgeLabel;html=1;align=center;verticalAlign=middle;resizable=0;points=[];fontColor=#666666;" parent="ec2_to_ebs" vertex="1" connectable="0">
          <mxGeometry x="-0.1887" y="-1" relative="1" as="geometry">
            <mxPoint as="offset" />
          </mxGeometry>
        </mxCell>
        <mxCell id="ec2_to_eventbridge" value="" style="endArrow=classic;html=1;rounded=0;strokeColor=#00CC00;strokeWidth=1;dashed=1;flowAnimation=1;" parent="aws_cloud" source="ec2" target="eventbridge_event" edge="1">
          <mxGeometry width="50" height="50" relative="1" as="geometry">
            <mxPoint x="520" y="219" as="sourcePoint" />
            <mxPoint x="330" y="109" as="targetPoint" />
          </mxGeometry>
        </mxCell>
        <mxCell id="api_call_label" value="API Call&lt;br&gt;(Attach/Detach)" style="edgeLabel;html=1;align=center;verticalAlign=middle;resizable=0;points=[];fontColor=#00CC00;" parent="ec2_to_eventbridge" vertex="1" connectable="0">
          <mxGeometry x="-0.4864" y="1" relative="1" as="geometry">
            <mxPoint x="-20" as="offset" />
          </mxGeometry>
        </mxCell>
        <mxCell id="legend" value="Legend" style="rounded=0;whiteSpace=wrap;html=1;fillColor=#f5f5f5;strokeColor=#666666;fontColor=#333333;align=left;verticalAlign=top;fontStyle=1" parent="aws_cloud" vertex="1">
          <mxGeometry x="500" y="480" width="240" height="130" as="geometry" />
        </mxCell>
        <mxCell id="legend_scheduled" value="" style="endArrow=classic;html=1;rounded=0;strokeColor=#FF9900;strokeWidth=2;dashed=1;flowAnimation=1;" parent="aws_cloud" edge="1">
          <mxGeometry width="50" height="50" relative="1" as="geometry">
            <mxPoint x="520" y="510" as="sourcePoint" />
            <mxPoint x="560" y="510" as="targetPoint" />
          </mxGeometry>
        </mxCell>
        <mxCell id="legend_scheduled_label" value="Scheduled Trigger" style="text;html=1;strokeColor=none;fillColor=none;align=left;verticalAlign=middle;whiteSpace=wrap;rounded=0;" parent="aws_cloud" vertex="1">
          <mxGeometry x="570" y="500" width="100" height="20" as="geometry" />
        </mxCell>
        <mxCell id="legend_event" value="" style="endArrow=classic;html=1;rounded=0;strokeColor=#00CC00;strokeWidth=2;flowAnimation=1;" parent="aws_cloud" edge="1">
          <mxGeometry width="50" height="50" relative="1" as="geometry">
            <mxPoint x="520" y="530" as="sourcePoint" />
            <mxPoint x="560" y="530" as="targetPoint" />
          </mxGeometry>
        </mxCell>
        <mxCell id="legend_event_label" value="Event Trigger" style="text;html=1;strokeColor=none;fillColor=none;align=left;verticalAlign=middle;whiteSpace=wrap;rounded=0;" parent="aws_cloud" vertex="1">
          <mxGeometry x="570" y="520" width="100" height="20" as="geometry" />
        </mxCell>
        <mxCell id="legend_api" value="" style="endArrow=classic;html=1;rounded=0;strokeColor=#0066CC;strokeWidth=2;flowAnimation=1;" parent="aws_cloud" edge="1">
          <mxGeometry width="50" height="50" relative="1" as="geometry">
            <mxPoint x="520" y="550" as="sourcePoint" />
            <mxPoint x="560" y="550" as="targetPoint" />
          </mxGeometry>
        </mxCell>
        <mxCell id="legend_api_label" value="API Call" style="text;html=1;strokeColor=none;fillColor=none;align=left;verticalAlign=middle;whiteSpace=wrap;rounded=0;" parent="aws_cloud" vertex="1">
          <mxGeometry x="570" y="540" width="100" height="20" as="geometry" />
        </mxCell>
        <mxCell id="legend_deployment" value="" style="endArrow=classic;html=1;rounded=0;strokeColor=#9933FF;strokeWidth=2;dashed=1;dashPattern=1 1;flowAnimation=1;" parent="aws_cloud" edge="1">
          <mxGeometry width="50" height="50" relative="1" as="geometry">
            <mxPoint x="520" y="570" as="sourcePoint" />
            <mxPoint x="560" y="570" as="targetPoint" />
          </mxGeometry>
        </mxCell>
        <mxCell id="legend_deployment_label" value="Deployment" style="text;html=1;strokeColor=none;fillColor=none;align=left;verticalAlign=middle;whiteSpace=wrap;rounded=0;" parent="aws_cloud" vertex="1">
          <mxGeometry x="570" y="560" width="100" height="20" as="geometry" />
        </mxCell>
        <mxCell id="legend_permissions" value="" style="endArrow=classic;html=1;rounded=0;strokeColor=#FFB366;strokeWidth=2;flowAnimation=1;" parent="aws_cloud" edge="1">
          <mxGeometry width="50" height="50" relative="1" as="geometry">
            <mxPoint x="520" y="590" as="sourcePoint" />
            <mxPoint x="560" y="590" as="targetPoint" />
          </mxGeometry>
        </mxCell>
        <mxCell id="legend_permissions_label" value="Permissions" style="text;html=1;strokeColor=none;fillColor=none;align=left;verticalAlign=middle;whiteSpace=wrap;rounded=0;" parent="aws_cloud" vertex="1">
          <mxGeometry x="570" y="580" width="100" height="20" as="geometry" />
        </mxCell>
      </root>
    </mxGraphModel>
  </diagram>
</mxfile>
